<?xml version="1.0" encoding="UTF-8"?>
<!-- Generated by jsxcad -->
<!DOCTYPE svg PUBLIC "-//W3C//DTD SVG 1.1 Tiny//EN" "http://www.w3.org/Graphics/SVG/1.1/DTD/svg11-tiny.dtd">
<svg baseProfile="tiny" height="85.94175126903558mm" width="1.6250000000000009mm" viewBox="-0.8125000000000004 -40.574936548223356 1.6250000000000009 85.94175126903558" version="1.1" stroke="black" stroke-width=".1" fill="none" xmlns="http://www.w3.org/2000/svg">
<path fill="#e2c66c" stroke="#e2c66c" d="M0.8125 -44.21694162436549 L0.8125 40.574936548223334 L-0.8125 40.574936548223334 L-0.8125 -44.21694162436549 z"/>
<path fill="#e2c66c" stroke="#e2c66c" d="M0.625 -44.48229695431473 L0.625 40.30958121827411 L0.8125 40.30958121827411 L0.8125 -44.48229695431473 z"/>
<path fill="#e2c66c" stroke="#e2c66c" d="M-0.625 -45.23413705583756 L-0.625 39.55774111675127 L-0.625 40.442258883248726 L-0.625 -44.3496192893401 z"/>
<path fill="#e2c66c" stroke="#e2c66c" d="M0.625 -45.23413705583758 L0.625 39.55774111675125 L-0.625 39.55774111675125 L-0.625 -45.23413705583758 z"/>
<path fill="#e2c66c" stroke="#e2c66c" d="M0.8125 -45.36681472081218 L0.8125 39.425063451776644 L0.8125 39.69041878172588 L0.8125 -45.10145939086294 z"/>
<path fill="#e2c66c" stroke="#e2c66c" d="M0.8125 -44.48229695431472 L0.8125 40.30958121827411 L0.8125 40.57493654822335 L0.8125 -44.216941624365475 z"/>
<path fill="#e2c66c" stroke="#e2c66c" d="M-0.8125 -45.366814720812194 L-0.8125 39.42506345177664 L0.8125 39.42506345177664 L0.8125 -45.366814720812194 z"/>
<path fill="#e2c66c" stroke="#e2c66c" d="M-0.8125 -44.216941624365475 L-0.8125 40.57493654822335 L-0.8125 39.425063451776644 L-0.8125 -45.36681472081218 z"/>
<path fill="#e2c66c" stroke="#e2c66c" d="M-0.625 -44.34961928934011 L-0.625 40.44225888324871 L0.625 40.44225888324871 L0.625 -44.34961928934011 z"/>
<path fill="#e2c66c" stroke="#e2c66c" d="M0.8125 -45.10145939086295 L0.8125 39.69041878172586 L0.625 39.69041878172586 L0.625 -45.10145939086295 z"/>
<path fill="#e2c66c" stroke="#e2c66c" d="M0.625 -45.10145939086294 L0.625 39.69041878172588 L0.625 39.55774111675127 L0.625 -45.23413705583756 z"/>
<path fill="#e2c66c" stroke="#e2c66c" d="M0.625 -44.3496192893401 L0.625 40.442258883248726 L0.625 40.30958121827411 L0.625 -44.48229695431472 z"/>
<path fill="#e2c66c" stroke="#e2c66c" d="M0.8125 -44.48229695431472 L0.8125 -44.216941624365475 L-0.8125 -44.216941624365475 L-0.8125 -45.36681472081218 L0.8125 -45.36681472081218 L0.8125 -45.101459390862935 L0.625 -45.101459390862935 L0.625 -45.23413705583756 L-0.625 -45.23413705583756 L-0.625 -44.3496192893401 L0.625 -44.3496192893401 L0.625 -44.48229695431472 z"/>
<path fill="#e2c66c" stroke="#e2c66c" d="M0.8125 40.57493654822334 L0.8125 40.309581218274104 L0.625 40.309581218274104 L0.625 40.442258883248726 L-0.625 40.442258883248726 L-0.625 39.55774111675126 L0.625 39.55774111675126 L0.625 39.69041878172588 L0.8125 39.69041878172588 L0.8125 39.425063451776644 L-0.8125 39.425063451776644 L-0.8125 40.57493654822334 z"/>
</svg>