<?xml version="1.0" encoding="UTF-8"?>
<!-- Generated by jsxcad -->
<!DOCTYPE svg PUBLIC "-//W3C//DTD SVG 1.1 Tiny//EN" "http://www.w3.org/Graphics/SVG/1.1/DTD/svg11-tiny.dtd">
<svg baseProfile="tiny" height="1.6250000000000009mm" width="1.6250000000000009mm" viewBox="0 0 1.6250000000000009 1.6250000000000009" version="1.1" stroke="black" stroke-width=".1" fill="none" xmlns="http://www.w3.org/2000/svg">
<path fill="#c0c0c0" stroke="#c0c0c0" d="M1.25 0 L1.625 0 L1.625 1.625 L0 1.625 L0 0 L0.375 0 L0.375 0.1875 L0.1875 0.1875 L0.1875 0.90625 L0.1875 1.349 L0.1875 1.4375 L1.4375 1.4375 L1.4375 1.20934 L1.4375 0.90625 L1.4375 0.1875 L1.25 0.1875 z"/>
<path fill="#c0c0c0" stroke="#c0c0c0" d="M1.4375 1.4375000000000004 L1.4375 1.4375000000000004 L0.1875 1.4375000000000004 L0.1875 1.4375000000000004 z"/>
<path fill="#c0c0c0" stroke="#c0c0c0" d="M0.18750000000000044 0.1875 L0.18750000000000044 0.1875 L0.18750000000000044 0.90625 L0.18750000000000044 1.349 L0.18750000000000044 1.4375 L0.18750000000000044 1.4375 L0.18750000000000044 1.349 L0.18750000000000044 0.90625 z"/>
<path fill="#c0c0c0" stroke="#c0c0c0" d="M1.4375000000000004 0.1875 L1.4375000000000004 0.1875 L1.4375000000000004 0.90625 L1.4375000000000004 1.20934 L1.4375000000000004 1.4375 L1.4375000000000004 1.4375 L1.4375000000000004 1.20934 L1.4375000000000004 0.90625 z"/>
<path fill="#c0c0c0" stroke="#c0c0c0" d="M4.440892098500626e-16 0 L4.440892098500626e-16 0 L4.440892098500626e-16 1.625 L4.440892098500626e-16 1.625 z"/>
<path fill="#c0c0c0" stroke="#c0c0c0" d="M0.37500000000000044 0 L0.37500000000000044 0 L0.37500000000000044 0.1875 L0.37500000000000044 0.1875 z"/>
<path fill="#c0c0c0" stroke="#c0c0c0" d="M0.375 0.18750000000000044 L0.375 0.18750000000000044 L0.1875 0.18750000000000044 L0.1875 0.18750000000000044 z"/>
<path fill="#c0c0c0" stroke="#c0c0c0" d="M1.2500000000000004 0 L1.2500000000000004 0 L1.2500000000000004 0.1875 L1.2500000000000004 0.1875 z"/>
<path fill="#c0c0c0" stroke="#c0c0c0" d="M1.25 0.18750000000000044 L1.25 0.18750000000000044 L1.4375 0.18750000000000044 L1.4375 0.18750000000000044 z"/>
<path fill="#c0c0c0" stroke="#c0c0c0" d="M0.375 4.440892098500626e-16 L0.375 4.440892098500626e-16 L0 4.440892098500626e-16 L0 4.440892098500626e-16 z"/>
<path fill="#c0c0c0" stroke="#c0c0c0" d="M1.625 1.6250000000000004 L1.625 1.6250000000000004 L0 1.6250000000000004 L0 1.6250000000000004 z"/>
<path fill="#c0c0c0" stroke="#c0c0c0" d="M1.6250000000000004 0 L1.6250000000000004 0 L1.6250000000000004 1.625 L1.6250000000000004 1.625 z"/>
<path fill="#c0c0c0" stroke="#c0c0c0" d="M1.625 4.440892098500626e-16 L1.625 4.440892098500626e-16 L1.25 4.440892098500626e-16 L1.25 4.440892098500626e-16 z"/>
<path fill="#c0c0c0" stroke="#c0c0c0" d="M1.625 0 L1.25 0 L1.25 0.1875 L1.4375 0.1875 L1.4375 0.90625 L1.4375 1.20934 L1.4375 1.4375 L0.1875 1.4375 L0.1875 1.349 L0.1875 0.90625 L0.1875 0.1875 L0.375 0.1875 L0.375 0 L0 0 L0 1.625 L1.625 1.625 z"/>
</svg>